<svg xmlns="http://www.w3.org/2000/svg" xml:space="preserve" fill-rule="evenodd" clip-rule="evenodd" version="1.1" viewBox="0 0 14 8"><path fill-rule="nonzero" stroke="currentcolor" stroke-width=".03" d="M13.036 1.177c0 .328-.106.597-.318.808L7.352 7.351a.997.997 0 0 1-.375.245 1.272 1.272 0 0 1-.432.073c-.155 0-.3-.025-.434-.073a1.014 1.014 0 0 1-.374-.245L.37 1.985a1.091 1.091 0 0 1-.318-.808C.052.85.159.581.37.37.583.158.875.042 1.177.052c.328 0 .597.106.808.318l4.55 4.55.01.008L11.103.37c.213-.213.506-.328.808-.318a1.09 1.09 0 0 1 1.125 1.125Z"/></svg>
