<svg xmlns="http://www.w3.org/2000/svg" xml:space="preserve" fill-rule="evenodd" clip-rule="evenodd" version="1.1" viewBox="0 0 14 8"><path fill-rule="nonzero" stroke="currentcolor" stroke-width=".03" d="M.052 6.544c0-.328.106-.597.318-.808L5.736.37a.997.997 0 0 1 .375-.245c.134-.048.278-.073.432-.073.155 0 .3.025.434.073.134.048.259.13.374.245l5.367 5.366c.212.211.318.48.318.808 0 .327-.107.596-.318.807a1.099 1.099 0 0 1-.807.318c-.328 0-.597-.106-.808-.318l-4.55-4.55-.01-.008-4.558 4.558a1.097 1.097 0 0 1-.808.318A1.09 1.09 0 0 1 .052 6.544Z"/></svg>
