<svg xmlns="http://www.w3.org/2000/svg" width="28" height="29" viewBox="0 0 28 29" fill="none">
  <path d="M14 17.6232C13.8594 17.6232 13.7285 17.6007 13.6074 17.5558C13.4863 17.5109 13.3711 17.4339 13.2618 17.3248L8.01848 12.0815C7.85709 11.9199 7.77445 11.7168 7.77057 11.4722C7.76687 11.2278 7.84951 11.021 8.01848 10.8518C8.18765 10.6829 8.39259 10.5984 8.63331 10.5984C8.87404 10.5984 9.07898 10.6829 9.24815 10.8518L14 15.604L18.7518 10.8518C18.9134 10.6904 19.1165 10.6078 19.3611 10.6039C19.6055 10.6002 19.8123 10.6829 19.9815 10.8518C20.1505 11.021 20.2349 11.2259 20.2349 11.4667C20.2349 11.7074 20.1505 11.9123 19.9815 12.0815L14.7382 17.3248C14.6289 17.4339 14.5137 17.5109 14.3926 17.5558C14.2714 17.6007 14.1406 17.6232 14 17.6232Z" fill="currentcolor"/>
</svg>
