<svg xmlns="http://www.w3.org/2000/svg" fill="none" viewBox="0.17 0.5 24.02 16">   <path d="M1.51363 16.5C1.13585 16.5 0.819187 16.3722 0.563631 16.1167C0.308076 15.8611 0.180298 15.5444 0.180298 15.1667C0.180298 14.7889 0.308076 14.4722 0.563631 14.2167C0.819187 13.9611 1.13585 13.8333 1.51363 13.8333H22.847C23.2247 13.8333 23.5414 13.9611 23.797 14.2167C24.0525 14.4722 24.1803 14.7889 24.1803 15.1667C24.1803 15.5444 24.0525 15.8611 23.797 16.1167C23.5414 16.3722 23.2247 16.5 22.847 16.5H1.51363ZM1.51363 9.83333C1.13585 9.83333 0.819187 9.70556 0.563631 9.45C0.308076 9.19444 0.180298 8.87778 0.180298 8.5C0.180298 8.12222 0.308076 7.80556 0.563631 7.55C0.819187 7.29445 1.13585 7.16667 1.51363 7.16667H22.847C23.2247 7.16667 23.5414 7.29445 23.797 7.55C24.0525 7.80556 24.1803 8.12222 24.1803 8.5C24.1803 8.87778 24.0525 9.19444 23.797 9.45C23.5414 9.70556 23.2247 9.83333 22.847 9.83333H1.51363ZM1.51363 3.16667C1.13585 3.16667 0.819187 3.03889 0.563631 2.78333C0.308076 2.52778 0.180298 2.21111 0.180298 1.83333C0.180298 1.45556 0.308076 1.13889 0.563631 0.883333C0.819187 0.627778 1.13585 0.5 1.51363 0.5H22.847C23.2247 0.5 23.5414 0.627778 23.797 0.883333C24.0525 1.13889 24.1803 1.45556 24.1803 1.83333C24.1803 2.21111 24.0525 2.52778 23.797 2.78333C23.5414 3.03889 23.2247 3.16667 22.847 3.16667H1.51363Z" fill="currentcolor"></path> </svg>
