<svg xmlns="http://www.w3.org/2000/svg" width="18" height="19" viewBox="0 0 18 19" fill="none">
  <path d="M8.94696 11.3667L2.41363 17.9001C2.16919 18.1445 1.85808 18.2667 1.4803 18.2667C1.10252 18.2667 0.791409 18.1445 0.546964 17.9001C0.30252 17.6556 0.180298 17.3445 0.180298 16.9667C0.180298 16.589 0.30252 16.2778 0.546964 16.0334L7.0803 9.50006L0.546964 2.96673C0.30252 2.72229 0.180298 2.41118 0.180298 2.0334C0.180298 1.65562 0.30252 1.34451 0.546964 1.10007C0.791409 0.855621 1.10252 0.733398 1.4803 0.733398C1.85808 0.733398 2.16919 0.855621 2.41363 1.10007L8.94696 7.6334L15.4803 1.10007C15.7247 0.855621 16.0359 0.733398 16.4136 0.733398C16.7914 0.733398 17.1025 0.855621 17.347 1.10007C17.5914 1.34451 17.7136 1.65562 17.7136 2.0334C17.7136 2.41118 17.5914 2.72229 17.347 2.96673L10.8136 9.50006L17.347 16.0334C17.5914 16.2778 17.7136 16.589 17.7136 16.9667C17.7136 17.3445 17.5914 17.6556 17.347 17.9001C17.1025 18.1445 16.7914 18.2667 16.4136 18.2667C16.0359 18.2667 15.7247 18.1445 15.4803 17.9001L8.94696 11.3667Z" fill="currentcolor"/>
</svg>
