<svg xmlns="http://www.w3.org/2000/svg" fill="none" viewBox="2.3 2.23 8.7 8.7">   <path fill-rule="evenodd" clip-rule="evenodd" d="M2.33105 6.57723C2.33105 6.27808 2.57357 6.03556 2.87272 6.03556H10.4561C10.7552 6.03556 10.9977 6.27808 10.9977 6.57723C10.9977 6.87638 10.7552 7.1189 10.4561 7.1189H2.87272C2.57357 7.1189 2.33105 6.87638 2.33105 6.57723Z" fill="white"></path>   <path fill-rule="evenodd" clip-rule="evenodd" d="M7.0474 2.40255C7.25894 2.61408 7.25894 2.95705 7.0474 3.16858L3.63875 6.57723L7.0474 9.98588C7.25894 10.1974 7.25894 10.5404 7.0474 10.7519C6.83587 10.9634 6.49291 10.9634 6.28137 10.7519L2.48971 6.96025C2.27817 6.74871 2.27817 6.40575 2.48971 6.19421L6.28137 2.40255C6.49291 2.19101 6.83587 2.19101 7.0474 2.40255Z" fill="currentcolor"></path> </svg>
